<svg id="Capa_1" enable-background="new 0 0 512 512" height="512" viewBox="0 0 512 512" width="512" xmlns="http://www.w3.org/2000/svg"><g><path d="m258.287 34.2h127.279v193.747h-127.279z" fill="#9b7ed0" transform="matrix(.707 -.707 .707 .707 1.607 266.027)"/><path d="m453 197c0-33.137-26.863-60-60-60h-77v-77c0-33.137-26.863-60-60-60l-110 256 110 256h197z" fill="#5f45a9"/><path d="m59 0h197v512h-197z" fill="#734bbd"/><path d="m378 377h-122l-20 15 20 15h122z" fill="#e3e7ea"/><path d="m194 377h62v30h-62z" fill="#fff"/><path d="m378 317h-122l-20 15 20 15h122z" fill="#e3e7ea"/><path d="m194 317h62v30h-62z" fill="#fff"/><path d="m378 257h-122l-20 15 20 15h122z" fill="#e3e7ea"/><g fill="#fff"><path d="m194 257h62v30h-62z"/><path d="m134 257h30v30h-30z"/><path d="m134 317h30v30h-30z"/><path d="m134 377h30v30h-30z"/></g></g></svg>