<svg height="512" viewBox="0 0 64 64" width="512" xmlns="http://www.w3.org/2000/svg"><path d="m29 59h-9.18a3 3 0 1 0 -5.82-1 3 3 0 0 0 .14.86 3 3 0 0 1 -2.14-2.86v-3a1 1 0 0 0 -2 0v3a5 5 0 0 0 5 5h14a1 1 0 0 0 0-2zm-12-2a1 1 0 1 1 -1 1 1 1 0 0 1 1-1z" fill="#57b7eb"/><path d="m17 29.67v-2.34a2.33 2.33 0 0 0 -2.33-2.33h-2.34a9.33 9.33 0 0 0 -9.33 9.33v9.34a9.33 9.33 0 0 0 9.33 9.33h2.34a2.33 2.33 0 0 0 2.33-2.33v-2.34a2.33 2.33 0 0 0 -2.33-2.33h-2.34a2.33 2.33 0 0 1 -2.33-2.33v-9.34a2.33 2.33 0 0 1 2.33-2.33h2.34a2.33 2.33 0 0 0 2.33-2.33z" fill="#f9e109"/><path d="m29 27h32v22h-32z" fill="#57b7eb"/><path d="m35 28v-1h-6v22h32v-5h-10a16 16 0 0 1 -16-16z" fill="#4891d3"/><path d="m29 49h32v12h-32z" fill="#93999a"/><g fill="#d0d8da"><path d="m30 53h3a0 0 0 0 1 0 0v3a0 0 0 0 1 0 0 3 3 0 0 1 -3-3 0 0 0 0 1 0 0z"/><path d="m30 57h3a0 0 0 0 1 0 0v3a0 0 0 0 1 0 0 3 3 0 0 1 -3-3 0 0 0 0 1 0 0z"/><path d="m30 49h3a0 0 0 0 1 0 0v3a0 0 0 0 1 0 0 3 3 0 0 1 -3-3 0 0 0 0 1 0 0z"/><path d="m34 53h3a0 0 0 0 1 0 0v3a0 0 0 0 1 0 0 3 3 0 0 1 -3-3 0 0 0 0 1 0 0z"/><path d="m34 57h3a0 0 0 0 1 0 0v3a0 0 0 0 1 0 0 3 3 0 0 1 -3-3 0 0 0 0 1 0 0z"/><path d="m34 49h3a0 0 0 0 1 0 0v3a0 0 0 0 1 0 0 3 3 0 0 1 -3-3 0 0 0 0 1 0 0z"/><path d="m38 57h15a0 0 0 0 1 0 0v3a0 0 0 0 1 0 0h-12a3 3 0 0 1 -3-3 0 0 0 0 1 0 0z"/><path d="m38 53h3a0 0 0 0 1 0 0v3a0 0 0 0 1 0 0 3 3 0 0 1 -3-3 0 0 0 0 1 0 0z"/><path d="m38 49h3a0 0 0 0 1 0 0v3a0 0 0 0 1 0 0 3 3 0 0 1 -3-3 0 0 0 0 1 0 0z"/><path d="m42 53h3a0 0 0 0 1 0 0v3a0 0 0 0 1 0 0 3 3 0 0 1 -3-3 0 0 0 0 1 0 0z"/><path d="m42 49h3a0 0 0 0 1 0 0v3a0 0 0 0 1 0 0 3 3 0 0 1 -3-3 0 0 0 0 1 0 0z"/><path d="m46 53h3a0 0 0 0 1 0 0v3a0 0 0 0 1 0 0 3 3 0 0 1 -3-3 0 0 0 0 1 0 0z"/><path d="m46 49h3a0 0 0 0 1 0 0v3a0 0 0 0 1 0 0 3 3 0 0 1 -3-3 0 0 0 0 1 0 0z"/><path d="m50 53h3a0 0 0 0 1 0 0v3a0 0 0 0 1 0 0 3 3 0 0 1 -3-3 0 0 0 0 1 0 0z"/><path d="m50 49h3a0 0 0 0 1 0 0v3a0 0 0 0 1 0 0 3 3 0 0 1 -3-3 0 0 0 0 1 0 0z"/><path d="m54 53h3a0 0 0 0 1 0 0v3a0 0 0 0 1 0 0 3 3 0 0 1 -3-3 0 0 0 0 1 0 0z"/><path d="m54 57h3a0 0 0 0 1 0 0v3a0 0 0 0 1 0 0 3 3 0 0 1 -3-3 0 0 0 0 1 0 0z"/><path d="m54 49h3a0 0 0 0 1 0 0v3a0 0 0 0 1 0 0 3 3 0 0 1 -3-3 0 0 0 0 1 0 0z"/><path d="m58 53h3a0 0 0 0 1 0 0v3a0 0 0 0 1 0 0 3 3 0 0 1 -3-3 0 0 0 0 1 0 0z"/><path d="m58 57h3a0 0 0 0 1 0 0v3a0 0 0 0 1 0 0 3 3 0 0 1 -3-3 0 0 0 0 1 0 0z"/><path d="m58 49h3a0 0 0 0 1 0 0v3a0 0 0 0 1 0 0 3 3 0 0 1 -3-3 0 0 0 0 1 0 0z"/></g><path d="m48.35 33.06a1 1 0 0 0 -1.29.59l-2.06 5.5-2.06-5.5a1 1 0 1 0 -1.88.7l3 8a1 1 0 0 0 1.88 0l3-8a1 1 0 0 0 -.59-1.29z" fill="#f9e109"/><path d="m57 36a3 3 0 0 0 -3-3h-2a1 1 0 0 0 -1 1v8a1 1 0 0 0 2 0v-3h1a1 1 0 0 1 1 1v2a1 1 0 0 0 2 0v-2a3 3 0 0 0 -.78-2 3 3 0 0 0 .78-2zm-4 1v-2h1a1 1 0 0 1 0 2z" fill="#f9e109"/><path d="m38 35a1 1 0 0 0 0-2h-4a1 1 0 0 0 0 2h1v6h-1a1 1 0 0 0 0 2h4a1 1 0 0 0 0-2h-1v-6z" fill="#f9e109"/><path d="m34 41a1 1 0 0 0 0 2h4a1 1 0 0 0 0-2h-1v-5.26a15.55 15.55 0 0 1 -1.19-2.74h-1.81a1 1 0 0 0 0 2h1v6z" fill="#fcbc04"/><path d="m44.1 42.42a1 1 0 0 0 .9.58.87.87 0 0 0 .32-.06c-.41-.15-.82-.33-1.22-.52z" fill="#fcbc04"/><path d="m61 53v-1h-3v-3h-1v3h-3v-3h-1v3h-3v-3h-1v3h-3v-3h-1v3h-3v-3h-1v3h-3v-3h-1v3h-3v-3h-1v3h-4v1h4v3h-4v1h4v4h1v-4h3v4h1v-4h15v4h1v-4h3v4h1v-4h3v-1h-3v-3zm-27 3v-3h3v3zm4 0v-3h3v3zm4 0v-3h3v3zm4 0v-3h3v3zm4 0v-3h3v3zm7 0h-3v-3h3z" fill="#656b76"/><path d="m42 3h-20a2 2 0 0 0 -2 2v14a2 2 0 0 0 2 2h10.69l3.31 9 3.54-9h2.46a2 2 0 0 0 2-2v-14a2 2 0 0 0 -2-2z" fill="#c4f236"/><path d="m37 10h-3v-3h-4v3h-3v4h3v3h4v-3h3z" fill="#f9e109"/><path d="m39 17a14 14 0 0 1 -14-14h-3a2 2 0 0 0 -2 2v14a2 2 0 0 0 2 2h10.69l3.31 9 3.54-9h2.46a2 2 0 0 0 2-2v-2z" fill="#a1d51c"/><path d="m34 17v-.94a14 14 0 0 1 -7-5.88v3.82h3v3z" fill="#fcbc04"/><path d="m16.67 50h-2.34a9.33 9.33 0 0 1 -9.33-9.33v-9.34a9.43 9.43 0 0 1 .71-3.57 9.31 9.31 0 0 0 -2.71 6.57v9.34a9.33 9.33 0 0 0 9.33 9.33h2.34a2.33 2.33 0 0 0 2.33-2.33v-.67z" fill="#fcbc04"/><path d="m18.54 44a1 1 0 0 0 .7.29 1 1 0 0 0 .76-.29 7 7 0 0 0 0-9.9 1 1 0 1 0 -1.41 1.41 5 5 0 0 1 0 7.08 1 1 0 0 0 -.05 1.41z" fill="#57b7eb"/><path d="m15.71 41.12a1 1 0 0 0 1.41 0 3 3 0 0 0 0-4.24 1 1 0 1 0 -1.41 1.41 1 1 0 0 1 0 1.42 1 1 0 0 0 0 1.41z" fill="#57b7eb"/><path d="m21.36 45.36a1 1 0 0 0 0 1.42 1 1 0 0 0 .71.29 1 1 0 0 0 .71-.29 11 11 0 0 0 0-15.56 1 1 0 0 0 -1.42 1.42 9 9 0 0 1 0 12.72z" fill="#57b7eb"/></svg>